# xmcd
#
# Track frame offsets:
#	150
#	15266
#	32266
#	47842
#	59705
#	73696
#	94650
#	110283
#	125890
#	139340
#	155243
#
# Disc length: 2251 seconds
#
# Revision: 1
# Processed by: cddbd v1.5.2PL0 Copyright (c) Steve Scherf et al.
# Submitted via: audiograbber 1.83.01
#
DISCID=9a08c90b
DTITLE=Jim Lauderdale - Time Flies
DYEAR=2018
DGENRE=Country
TTITLE0=Time Flies
TTITLE1=The Road Is a River
TTITLE2=Violet
TTITLE3=Slow as Molasses
TTITLE4=Where the Cars Go by Fast
TTITLE5=When I Held the Cards
TTITLE6=Wearing Out Your Cool
TTITLE7=Wild on Me Fast
TTITLE8=While You're Hoping
TTITLE9=It Blows My Mind
TTITLE10=If the World's Still Here Tomorrow
EXTD=
EXTT0=
EXTT1=
EXTT2=
EXTT3=
EXTT4=
EXTT5=
EXTT6=
EXTT7=
EXTT8=
EXTT9=
EXTT10=
PLAYORDER=
